# xmcd
#
# Track frame offsets: 
#        150
#        15628
#        29292
#        47190
#        61557
#        73669
#        91140
#        110993
#        127045
#        145824
#        161664
#        175336
#        192101
#        206474
#
# Disc length: 2964 seconds
#
# Revision: 0
# Processed by: cddbd v1.5.1PL2 Copyright (c) Steve Scherf et al.
# Submitted via: ExactAudioCopy v0.95a5
#
DISCID=c30b920e
DTITLE=Various Artist - Ed's Miscellaneous Country
DYEAR=1900
DGENRE=Country
TTITLE0=Wade Hayes - How Do You Sleep At Night
TTITLE1=Alabama - How Do You Fall In Love
TTITLE2=Alan Jackson - I'll Go On Loving You
TTITLE3=Blackhawk - There You Have It
TTITLE4=Clay Walker - You're Beginning To Get To Me
TTITLE5=Clint Black - Nothin' But The Taillights
TTITLE6=Faith Hill - Let Me Go
TTITLE7=George Strait - True
TTITLE8=John Michael Montgomery - Hold On To Me
TTITLE9=LeAnn Rimes  - Nothin' New Under The Moon
TTITLE10=Michael Peterson - By The Book
TTITLE11=Pam Tillis - Everytime
TTITLE12=Vince Gill - Kindly Keep It Country
TTITLE13=Aaron Tippin - For You I Will
EXTD=
EXTT0=
EXTT1=
EXTT2=
EXTT3=
EXTT4=
EXTT5=
EXTT6=
EXTT7=
EXTT8=
EXTT9=
EXTT10=
EXTT11=
EXTT12=
EXTT13=
PLAYORDER=
